HIERARCHY
ROOT Hips
{
	OFFSET -13.091600 -28.302996 44.698402
	CHANNELS 6 Xposition Yposition Zposition Zrotation Xrotation Yrotation
	JOINT Chest
	{
		OFFSET -0.673000 0.623899 5.369202
		CHANNELS 6 Xposition Yposition Zposition Zrotation Xrotation Yrotation
		JOINT Chest2
		{
			OFFSET 0.000000 0.000000 4.415001
			CHANNELS 6 Xposition Yposition Zposition Zrotation Xrotation Yrotation
			JOINT Neck
			{
				OFFSET 0.000000 0.000002 10.273300
				CHANNELS 6 Xposition Yposition Zposition Zrotation Xrotation Yrotation
				JOINT Head
				{
					OFFSET 0.000000 0.000000 2.173897
					CHANNELS 6 Xposition Yposition Zposition Zrotation Xrotation Yrotation
					End Site
					{
						OFFSET 0.000000 0.000000 9.961800
					}
				}
			}
			JOINT LeftCollar
			{
				OFFSET 2.359900 -0.565201 5.928101
				CHANNELS 6 Xposition Yposition Zposition Zrotation Xrotation Yrotation
				JOINT LeftShoulder
				{
					OFFSET 5.443700 0.000000 0.000000
					CHANNELS 6 Xposition Yposition Zposition Zrotation Xrotation Yrotation
					JOINT LeftElbow
					{
						OFFSET 0.000000 0.000000 -10.615799
						CHANNELS 6 Xposition Yposition Zposition Zrotation Xrotation Yrotation
						JOINT LeftWrist
						{
							OFFSET 0.000000 -0.000002 -13.110302
							CHANNELS 6 Xposition Yposition Zposition Zrotation Xrotation Yrotation
							End Site
							{
								OFFSET 0.000000 0.000000 -2.173901
							}
						}
					}
				}
			}
			JOINT RightCollar
			{
				OFFSET -2.636600 -1.718800 6.889698
				CHANNELS 6 Xposition Yposition Zposition Zrotation Xrotation Yrotation
				JOINT RightShoulder
				{
					OFFSET -4.139101 0.000000 0.000000
					CHANNELS 6 Xposition Yposition Zposition Zrotation Xrotation Yrotation
					JOINT RightElbow
					{
						OFFSET 0.000000 0.000000 -10.471802
						CHANNELS 6 Xposition Yposition Zposition Zrotation Xrotation Yrotation
						JOINT RightWrist
						{
							OFFSET 0.000000 0.000000 -12.281898
							CHANNELS 6 Xposition Yposition Zposition Zrotation Xrotation Yrotation
							End Site
							{
								OFFSET 0.000000 -0.000002 -2.173901
							}
						}
					}
				}
			}
		}
	}
	JOINT LeftHip
	{
		OFFSET 2.273400 0.176701 -2.518002
		CHANNELS 6 Xposition Yposition Zposition Zrotation Xrotation Yrotation
		JOINT LeftKnee
		{
			OFFSET 0.000000 -0.000002 -20.456402
			CHANNELS 6 Xposition Yposition Zposition Zrotation Xrotation Yrotation
			JOINT LeftAnkle
			{
				OFFSET 0.000000 -0.000002 -16.635300
				CHANNELS 6 Xposition Yposition Zposition Zrotation Xrotation Yrotation
				End Site
				{
					OFFSET 0.000000 -8.812399 0.000001
				}
			}
		}
	}
	JOINT RightHip
	{
		OFFSET -1.914800 0.018101 -2.699299
		CHANNELS 6 Xposition Yposition Zposition Zrotation Xrotation Yrotation
		JOINT RightKnee
		{
			OFFSET 0.000000 -0.000002 -20.148901
			CHANNELS 6 Xposition Yposition Zposition Zrotation Xrotation Yrotation
			JOINT RightAnkle
			{
				OFFSET 0.000000 -0.000002 -16.838301
				CHANNELS 6 Xposition Yposition Zposition Zrotation Xrotation Yrotation
				End Site
				{
					OFFSET 0.000000 -8.328398 0.000001
				}
			}
		}
	}
}
MOTION
Frames: 7
Frame Time: 0.041667
8.237701 38.338615 24.411402 2932.893721 38.127120 -30.705279 -0.673003 0.623897 5.369209 14.673690 -7.304325 -7.750977 0.000005 0.000000 4.415005 -2.611713 -3.006928 -0.486666 0.000004 -0.000003 10.273299 -12.397446 -10.941565 33.894486 0.000001 0.000003 2.173912 1.746431 -10.892255 2.226509 2.359902 -0.565202 5.928099 10.826306 -3.526890 -10.923749 5.443701 -0.000001 -0.000004 -11.136571 357.875329 -109.044428 0.000002 -0.000002 -10.615795 954.001154 -151.776680 191.655422 0.000008 0.000011 -13.110294 -1858.400271 170.070030 -132.779219 -2.636598 -1.718803 6.889698 169.966402 -166.422928 202.087635 -4.139105 -0.000003 -0.000001 248.185770 -136.111778 683.693412 -0.000001 -0.000005 -10.471800 -2.994017 -25.493396 -368.167031 0.000002 0.000003 -12.281899 420.252578 0.558798 27.340979 2.273397 0.176704 -2.517999 -410.688292 -156.474265 -55.258997 0.000005 -0.000010 -20.456392 768.267819 182.207549 -61.791594 -0.000004 -0.000005 -16.635300 -316.580115 0.119181 29.959621 -1.914791 0.018100 -2.699293 -18.371448 155.887511 103.349320 0.000001 -0.000002 -20.148903 -807.432998 -199.173575 190.094546 0.000000 -0.000004 -16.838303 1147.945850 32.461840 -13.811401
8.278196 38.342010 24.349703 2932.809136 38.224375 -30.659794 -0.672999 0.623902 5.369204 14.752117 -7.186002 -7.811860 0.000005 -0.000000 4.415000 -2.615748 -3.064388 -0.488387 0.000008 -0.000003 10.273304 -12.300436 -11.049125 33.939405 0.000002 -0.000002 2.173898 1.734620 -10.931629 2.254936 2.359906 -0.565203 5.928099 10.717401 -3.444800 -10.634441 5.443701 -0.000002 -0.000003 -10.992008 358.033954 -109.141813 -0.000003 -0.000007 -10.615797 954.249117 -151.855391 191.720091 0.000003 -0.000006 -13.110298 -1858.583867 170.068541 -132.768045 -2.636594 -1.718801 6.889701 170.085166 -166.603163 202.135023 -4.139099 -0.000004 -0.000002 247.703367 -136.205406 683.193442 0.000002 -0.000002 -10.471802 -2.209466 -25.493539 -367.465161 -0.000002 0.000001 -12.281897 419.581198 0.562715 27.523740 2.273401 0.176704 -2.518007 -410.420958 -156.480754 -55.101636 0.000003 -0.000006 -20.456394 768.676046 182.621391 -61.614453 -0.000005 0.000001 -16.635302 -316.072441 0.058260 30.330398 -1.914794 0.018099 -2.699296 -18.145075 156.074740 103.243179 0.000003 -0.000004 -20.148903 -807.667192 -199.167251 190.235863 -0.000003 -0.000001 -16.838301 1147.900389 32.475272 -13.821427
8.316696 38.348206 24.289101 2932.768264 38.306399 -30.635912 -0.673002 0.623901 5.369206 14.797256 -7.072594 -7.875287 0.000000 0.000001 4.415010 -2.625531 -3.135666 -0.491455 -0.000002 0.000001 10.273302 -12.182284 -11.124115 33.977220 -0.000003 -0.000005 2.173899 1.712432 -10.971146 2.298246 2.359903 -0.565199 5.928100 10.620860 -3.359970 -10.330141 5.443707 -0.000004 0.000003 -10.859658 358.200091 -109.272918 0.000005 -0.000001 -10.615803 954.541886 -151.935687 191.830904 0.000000 0.000011 -13.110294 -1858.803744 170.064252 -132.765668 -2.636601 -1.718802 6.889698 170.128961 -166.714440 202.109764 -4.139098 -0.000002 0.000003 247.331778 -136.299908 682.816907 -0.000001 -0.000003 -10.471799 -1.438034 -25.519846 -366.910276 0.000004 0.000002 -12.281900 418.885011 0.610191 27.723487 2.273396 0.176705 -2.518002 -410.188623 -156.516749 -54.943520 0.000004 -0.000002 -20.456394 769.019031 182.917302 -61.423092 -0.000006 -0.000006 -16.635294 -315.659897 0.069210 30.485149 -1.914801 0.018102 -2.699296 -17.957653 156.249689 103.124887 -0.000001 -0.000006 -20.148901 -808.136672 -199.146637 190.454552 -0.000001 0.000000 -16.838305 1148.172722 32.445140 -13.958636
8.353701 38.354317 24.228905 2932.716245 38.395044 -30.566049 -0.673003 0.623900 5.369214 14.834638 -6.984994 -7.966291 0.000001 0.000001 4.415004 -2.630538 -3.199203 -0.493719 0.000002 0.000006 10.273302 -12.076588 -11.198359 34.017119 -0.000004 -0.000005 2.173900 1.723700 -11.007342 2.335488 2.359903 -0.565200 5.928097 10.479511 -3.213114 -10.042277 5.443690 -0.000004 0.000002 -10.667060 358.266535 -109.411311 -0.000001 0.000000 -10.615787 954.650732 -151.959524 191.902812 0.000001 0.000007 -13.110296 -1858.895979 170.059416 -132.764930 -2.636601 -1.718800 6.889705 170.165653 -166.857724 202.054795 -4.139099 -0.000007 0.000004 247.184792 -136.352924 682.674621 0.000003 0.000001 -10.471802 -0.537344 -25.502726 -366.390936 0.000005 0.000002 -12.281899 418.170190 0.671291 27.914707 2.273398 0.176707 -2.518005 -409.952790 -156.588370 -54.777550 0.000004 -0.000002 -20.456398 769.277540 183.146263 -61.217777 -0.000006 -0.000007 -16.635300 -315.323060 0.117863 30.478333 -1.914803 0.018103 -2.699299 -17.828476 156.350994 103.064426 0.000002 -0.000006 -20.148901 -808.813680 -199.027860 190.699742 -0.000001 0.000000 -16.838306 1148.919671 32.433689 -14.384527
8.386698 38.360504 24.169199 2932.688706 38.465491 -30.492017 -0.673000 0.623897 5.369207 14.830721 -6.904800 -8.070846 0.000000 0.000003 4.415002 -2.624935 -3.243158 -0.494207 0.000001 -0.000003 10.273312 -11.974152 -11.277406 34.049921 -0.000000 -0.000004 2.173906 1.753320 -11.026738 2.334255 2.359902 -0.565205 5.928103 10.401091 -3.104393 -9.828856 5.443699 -0.000003 -0.000004 -10.578467 358.317379 -109.467298 -0.000002 0.000000 -10.615803 954.782309 -152.008278 191.982179 0.000003 0.000009 -13.110295 -1859.054877 170.056547 -132.755149 -2.636599 -1.718801 6.889713 170.457985 -167.291523 202.084766 -4.139092 -0.000002 0.000004 246.979203 -136.265197 682.912585 -0.000001 -0.000000 -10.471798 0.307162 -25.461340 -365.985332 0.000002 -0.000001 -12.281898 417.527907 0.776566 28.106539 2.273404 0.176705 -2.518003 -409.737174 -156.660388 -54.610699 -0.000001 -0.000004 -20.456396 769.462010 183.191643 -60.994457 -0.000007 -0.000006 -16.635300 -315.142770 0.211562 30.320132 -1.914791 0.018101 -2.699296 -17.756672 156.416318 103.034203 0.000005 -0.000004 -20.148901 -809.564455 -198.855193 190.960519 0.000002 -0.000003 -16.838303 1149.885624 32.404436 -14.971892
8.416096 38.365517 24.112400 2932.693733 38.528448 -30.464402 -0.672999 0.623904 5.369215 14.794878 -6.830072 -8.135078 0.000006 0.000002 4.415005 -2.621415 -3.262942 -0.493302 0.000002 0.000001 10.273299 -11.850203 -11.344915 34.059776 -0.000001 -0.000001 2.173900 1.766585 -11.055171 2.352489 2.359903 -0.565199 5.928097 10.326210 -3.030332 -9.689726 5.443698 0.000000 0.000000 -10.509553 358.249514 -109.466301 0.000003 0.000000 -10.615789 954.718050 -152.023878 192.022873 0.000003 0.000009 -13.110294 -1859.133779 170.054881 -132.756830 -2.636600 -1.718800 6.889706 170.538813 -167.437498 202.031409 -4.139103 -0.000007 -0.000003 247.025840 -136.217645 683.040664 0.000003 -0.000000 -10.471798 0.903298 -25.408032 -365.715758 0.000006 0.000000 -12.281899 417.124188 0.797916 28.238155 2.273398 0.176702 -2.518000 -409.574616 -156.807661 -54.489910 -0.000001 -0.000008 -20.456394 769.552332 183.086363 -60.768091 -0.000003 0.000002 -16.635298 -315.128672 0.452232 29.949758 -1.914795 0.018106 -2.699296 -17.734279 156.403122 103.008139 0.000002 0.000001 -20.148901 -809.851213 -198.787519 191.097123 -0.000004 0.000001 -16.838301 1150.277404 32.351891 -15.220416
8.443296 38.371017 24.056698 2932.734823 38.571181 -30.474286 -0.672998 0.623899 5.369204 14.764699 -6.762515 -8.189102 -0.000001 -0.000000 4.415006 -2.645116 -3.260007 -0.490831 -0.000010 -0.000003 10.273304 -11.758388 -11.446652 34.094774 0.000001 -0.000001 2.173897 1.791032 -11.086103 2.328493 2.359894 -0.565205 5.928100 10.285438 -2.977222 -9.594837 5.443696 -0.000006 -0.000002 -10.509026 358.129003 -109.394789 0.000003 0.000004 -10.615789 954.658163 -152.034601 192.063526 0.000001 0.000006 -13.110295 -1859.262514 170.056616 -132.740260 -2.636608 -1.718803 6.889696 170.605093 -167.494256 202.058429 -4.139097 0.000000 0.000003 247.050920 -136.130684 683.091863 -0.000001 0.000000 -10.471802 1.251889 -25.332081 -365.547708 0.000007 -0.000003 -12.281899 416.849150 0.794763 28.332391 2.273404 0.176700 -2.518007 -409.463584 -156.980273 -54.407091 0.000004 -0.000005 -20.456398 769.633420 182.969717 -60.563731 -0.000003 -0.000006 -16.635296 -315.039060 0.593860 29.526293 -1.914795 0.018101 -2.699300 -17.732792 156.390281 102.967629 0.000003 -0.000004 -20.148903 -809.975031 -198.768805 191.199179 0.000001 -0.000002 -16.838301 1150.393244 32.279997 -15.321374
